<svg version="1.1" id="Layer_1" xmlns="http://www.w3.org/2000/svg" xmlns:xlink="http://www.w3.org/1999/xlink" x="0px" y="0px"
	 width="100%" viewBox="0 0 416 320" enable-background="new 0 0 416 320" xml:space="preserve">
<path fill="#FFDB70" opacity="1.000000" stroke="none" 
	d="
M161.000122,61.649101 
	C214.487686,61.649570 267.475250,61.647724 320.462799,61.653042 
	C332.069794,61.654205 336.339050,65.973625 336.339478,77.659431 
	C336.340973,121.815727 336.347961,165.972015 336.344727,210.128311 
	C336.343903,221.127029 331.551880,226.102417 320.607483,226.115341 
	C276.451263,226.167480 232.294937,226.154953 188.138657,226.130585 
	C181.404922,226.126877 179.115921,223.914612 178.865967,217.217560 
	C178.716919,213.224091 178.728226,209.217041 178.859650,205.222427 
	C179.076096,198.643829 181.130844,196.686798 187.746109,196.684265 
	C231.569153,196.667496 275.392212,196.675949 319.215240,196.672714 
	C325.780243,196.672226 325.799561,196.663849 325.800476,190.075134 
	C325.805725,153.083832 325.805328,116.092522 325.795471,79.101212 
	C325.793640,72.261803 325.721832,72.178917 318.740051,72.177773 
	C255.421600,72.167351 192.103149,72.165878 128.784698,72.176666 
	C122.406197,72.177757 121.980095,72.611748 121.951294,78.989166 
	C121.909149,88.319939 121.861610,97.651581 121.948967,106.981606 
	C121.981758,110.484505 121.115341,112.739754 117.032143,112.810799 
	C113.160080,112.878174 111.041130,111.528282 111.095413,107.392303 
	C111.246155,95.908257 110.266922,84.394630 111.616333,72.946457 
	C112.457443,65.810654 117.279427,61.730137 124.509529,61.679008 
	C136.505859,61.594166 148.503204,61.651760 161.000122,61.649101 
M222.043396,204.475800 
	C218.330338,207.777328 218.367966,212.067688 222.165375,213.370529 
	C223.985474,213.994980 225.770218,213.786545 227.230484,212.360077 
	C228.682907,210.941269 229.032608,209.184891 228.360718,207.345200 
	C227.421356,204.773224 225.354156,204.023544 222.043396,204.475800 
z"/>
<path fill="#FFDB70" opacity="1.000000" stroke="none" 
	d="
M94.112267,122.786102 
	C115.077087,122.795662 135.558487,122.792381 156.039841,122.821838 
	C165.802704,122.835884 168.768021,125.379738 168.813324,135.143738 
	C168.985504,172.266266 169.003830,209.390259 168.874405,246.512985 
	C168.841324,256.005859 166.004700,258.374603 156.364120,258.380676 
	C134.384094,258.394562 112.404053,258.405212 90.424049,258.381866 
	C82.406982,258.373383 79.664490,255.627243 79.660072,247.583389 
	C79.639771,210.616959 79.649338,173.650543 79.650032,136.684113 
	C79.650253,124.944977 81.789078,122.821274 94.112267,122.786102 
M87.349388,183.499878 
	C87.350006,201.141174 87.423897,218.783020 87.293915,236.423355 
	C87.265442,240.287582 88.608376,241.728394 92.519806,241.706329 
	C113.488930,241.588028 134.459488,241.588638 155.428528,241.716431 
	C159.236145,241.739624 160.761414,240.584229 160.747269,236.593399 
	C160.639374,206.137619 160.653824,175.681137 160.754288,145.225281 
	C160.766327,141.572250 159.512863,140.214722 155.830215,140.233017 
	C134.694504,140.338104 113.557549,140.352097 92.422104,140.221573 
	C88.434563,140.196960 87.242149,141.745422 87.291908,145.553802 
	C87.452789,157.867294 87.350647,170.184250 87.349388,183.499878 
M123.676399,251.548935 
	C126.053314,251.516525 127.518036,250.369873 127.467033,247.945892 
	C127.432060,246.283707 126.218620,245.243240 124.663841,244.828659 
	C122.968071,244.376495 121.683876,245.279907 120.946129,246.658722 
	C119.707642,248.973389 121.004028,250.397934 123.676399,251.548935 
M130.501907,133.935486 
	C131.197510,133.722504 132.236877,134.148407 132.451614,132.748734 
	C126.792747,132.748734 121.206474,132.748734 115.620201,132.748734 
	C120.269600,134.487228 125.021027,133.753082 130.501907,133.935486 
z"/>
<path fill="#FFDB70" opacity="1.000000" stroke="none" 
	d="
M247.063919,257.873840 
	C226.443619,256.693512 206.307755,258.273560 186.175354,257.757111 
	C179.417160,257.583710 178.891235,256.952087 178.763199,250.830978 
	C178.672714,246.505600 180.447495,244.776031 184.678909,244.909821 
	C189.335587,245.057068 194.003769,244.826508 198.661667,244.953568 
	C202.206253,245.050262 204.063507,243.744110 203.658035,240.001068 
	C203.195557,235.731659 205.384354,234.574295 209.314438,234.632263 
	C220.133713,234.791885 230.958496,234.795700 241.777664,234.632874 
	C245.809845,234.572205 247.804169,235.968002 247.321716,240.131500 
	C246.878357,243.957764 248.800400,245.043289 252.324127,244.970886 
	C259.313354,244.827255 266.309967,245.053604 273.299683,244.922119 
	C278.460846,244.825043 279.166992,247.820877 279.183228,252.045120 
	C279.200470,256.540100 277.173889,257.619629 273.009216,257.542480 
	C264.529022,257.385406 256.039429,257.734100 247.063919,257.873840 
z"/>
</svg>