<svg width="24" height="24" viewBox="0 0 24 24" fill="none" xmlns="http://www.w3.org/2000/svg">
  <path fill-rule="evenodd" clip-rule="evenodd" d="M12 0C5.373 0 0 5.373 0 12c0 5.301 3.438 9.8 8.208 11.387.6.11.822-.257.822-.577 0-.285-.01-1.04-.015-2.038-3.338.725-4.042-1.613-4.042-1.613C4.65 18.15 3.8 17.77 3.8 17.77c-1.08-.738.083-.723.083-.723 1.194.084 1.823 1.228 1.823 1.228 1.062 1.82 2.787 1.294 3.46.99.108-.77.416-1.294.757-1.59-2.65-.303-5.44-1.324-5.44-5.896 0-1.3.465-2.36 1.228-3.19-.123-.303-.534-1.514.116-3.15 0 0 1.002-.32 3.28 1.222.952-.265 1.963-.397 2.976-.402 1.012.005 2.024.137 2.976.402 2.276-1.542 3.278-1.222 3.278-1.222.652 1.636.24 2.847.117 3.15.765.83 1.226 1.89 1.226 3.19 0 4.582-2.793 5.59-5.45 5.88.428.368.808 1.097.808 2.215 0 1.601-.014 2.887-.014 3.277 0 .32.218.694.828.576C20.566 21.793 24 17.292 24 12c0-6.627-5.373-12-12-12z" fill="#fff"/>
</svg>
